<svg width="75" height="30" viewBox="0 0 75 30" fill="none" xmlns="http://www.w3.org/2000/svg">
<g clip-path="url(#clip0_1228_28960)">
<path d="M9.69822 6.54883C4.40819 6.54883 0 8.78835 0 15.5458C0 20.8992 2.96423 24.2702 9.83456 24.2702C17.9214 24.2702 18.4398 18.9538 18.4398 18.9538H14.5214C14.5214 18.9538 13.6814 21.8165 9.59565 21.8165C6.26793 21.8165 3.87458 19.573 3.87458 16.4287H18.8498V14.4553C18.8498 11.3444 16.871 6.54883 9.69822 6.54883V6.54883ZM9.56137 9.07072C12.729 9.07072 14.8884 11.0074 14.8884 13.91H3.96114C3.96114 10.8284 6.78002 9.07072 9.56137 9.07072V9.07072Z" fill="#C0C0CF"/>
<path d="M18.847 0.00390625V20.8754C18.847 22.06 18.7622 23.7236 18.7622 23.7236H22.4994C22.4994 23.7236 22.6338 22.5289 22.6338 21.4369C22.6338 21.4369 24.4803 24.32 29.5011 24.32C34.7881 24.32 38.3795 20.6564 38.3795 15.4081C38.3795 10.5254 35.0808 6.59837 29.5096 6.59837C24.2926 6.59837 22.6716 9.40988 22.6716 9.40988V0.00390625H18.847ZM28.545 9.17994C32.1354 9.17994 34.4186 11.8394 34.4186 15.4081C34.4186 19.235 31.7816 21.7385 28.5707 21.7385C24.7387 21.7385 22.6716 18.7522 22.6716 15.4421C22.6716 12.3577 24.5263 9.17994 28.545 9.17994V9.17994Z" fill="#C0C0CF"/>
<path d="M47.6682 6.54883C39.7099 6.54883 39.1995 10.8975 39.1995 11.5926H43.1607C43.1607 11.5926 43.3683 9.05374 47.395 9.05374C50.0115 9.05374 52.0391 10.2491 52.0391 12.5468V13.3648H47.395C41.2296 13.3648 37.9702 15.1649 37.9702 18.8177C37.9702 22.4124 40.9817 24.3683 45.0517 24.3683C50.5984 24.3683 52.3851 21.3097 52.3851 21.3097C52.3851 22.5263 52.4789 23.7252 52.4789 23.7252H56.0002C56.0002 23.7252 55.8639 22.2392 55.8639 21.2884V13.0709C55.8639 7.68257 51.509 6.54883 47.6682 6.54883V6.54883ZM52.0391 15.8185V16.909C52.0391 18.3314 51.1595 21.8677 45.9821 21.8677C43.1469 21.8677 41.9314 20.4556 41.9314 18.8175C41.9314 15.8377 46.0248 15.8185 52.0391 15.8185Z" fill="#C0C0CF"/>
<path d="M53.7305 7.23047H58.1867L64.5822 20.0179L70.963 7.23047H74.9999L63.3774 29.9961H59.1428L62.4966 23.6498L53.7305 7.23047V7.23047Z" fill="#C0C0CF"/>
</g>
<defs>
<clipPath id="clip0_1228_28960">
<rect width="75" height="30" fill="white"/>
</clipPath>
</defs>
</svg>
