<svg width="54" height="22" viewBox="0 0 54 22" fill="none" xmlns="http://www.w3.org/2000/svg">
<g clip-path="url(#clip0_709_13694)">
<path d="M0.351562 0.482422V1.94566H10.7589V0.482422H0.351562ZM12.2334 0.482422V1.94566H27.0643C27.0643 1.94566 25.5494 0.482422 23.543 0.482422H12.2334ZM29.9737 0.482422V1.94566H38.9462L38.4136 0.482422H29.9737ZM45.379 0.482422L44.8464 1.94566H53.7374V0.482422H45.379ZM0.351562 3.32806V4.7913H10.7589V3.32806H0.351562ZM12.2334 3.33015V4.79135H28.7853C28.7853 4.79135 28.592 3.66517 28.2548 3.33015H12.2334ZM29.9737 3.33015V4.79135H39.9299L39.437 3.33015H29.9737ZM44.3138 3.33015L43.8209 4.79135H53.7374V3.33015H44.3138ZM3.34236 6.1737V7.63903H7.8495V6.1737H3.34236ZM15.2242 6.1737V7.63903H19.7314V6.1737H15.2242ZM24.1153 6.1737V7.63903H28.6224C28.6224 7.63903 28.9086 6.86519 28.9086 6.1737H24.1153ZM32.9646 6.1737V7.63903H40.9554L40.4228 6.1737H32.9646ZM43.3322 6.1737L42.7975 7.63903H50.828V6.1737H43.3322ZM3.34236 9.02148V10.4847H7.8495V9.02148H3.34236ZM15.2242 9.02148V10.4847H26.7364C26.7364 10.4847 27.6995 9.73393 28.0063 9.02148H15.2242ZM32.9646 9.02148V10.4847H37.4717V9.6702L37.7578 10.4847H46.0139L46.321 9.6702V10.4847H50.8281V9.02148H42.3673L41.9182 10.2608L41.4671 9.02148H32.9646ZM3.34236 11.8671V13.3304H7.8495V11.8671H3.34236ZM15.2242 11.8671V13.3304H28.0063C27.6994 12.6203 26.7364 11.8671 26.7364 11.8671H15.2242ZM32.9646 11.8671V13.3304H37.4717V11.8671H32.9646ZM38.2904 11.8671L38.8355 13.3304H45.026L45.544 11.8671H38.2904ZM46.3209 11.8671V13.3304H50.828V11.8671H46.3209ZM3.34236 14.7128V16.1759H7.8495V14.7128H3.34236ZM15.2242 14.7128V16.1759H19.7314V14.7128H15.2242ZM24.1153 14.7128V16.1759H28.9085C28.9085 15.4854 28.6224 14.7128 28.6224 14.7128H24.1153ZM32.9646 14.7128V16.1759H37.4717V14.7128H32.9646ZM39.3138 14.7128L39.8422 16.1759H43.9922L44.5248 14.7128H39.3138ZM46.3209 14.7128V16.1759H50.828V14.7128H46.3209ZM0.432993 17.5584V19.0237H10.8403V17.5584H0.432993ZM12.2334 17.5584V19.0237H28.2548C28.592 18.6882 28.7853 17.5584 28.7853 17.5584H12.2334ZM30.0552 17.5584V19.0237H37.4717V17.5584H30.0552ZM40.3392 17.5584L40.8823 19.0237H42.9938L43.5034 17.5584H40.3392ZM46.3209 17.5584V19.0237H53.8189V17.5584H46.3209ZM0.432993 20.4061V21.8694H10.8403V20.4061H0.432993ZM12.2334 20.4061V21.8673H23.543C25.5494 21.8673 27.0643 20.4061 27.0643 20.4061H12.2334ZM30.0552 20.4061V21.8694H37.4717V20.4061H30.0552ZM41.3689 20.4061L41.8911 21.8652L41.9809 21.8673L42.5114 20.4061H41.3689ZM46.3209 20.4061V21.8694H53.8189V20.4061H46.3209Z" fill="#C0C0CF"/>
</g>
<defs>
<clipPath id="clip0_709_13694">
<rect width="53.4673" height="21.3869" fill="white" transform="translate(0.351562 0.482422)"/>
</clipPath>
</defs>
</svg>
